<svg width="101" height="94" viewBox="0 0 101 94" fill="none" xmlns="http://www.w3.org/2000/svg">
<path d="M0.716624 89.0881C0.489114 89.2446 0.431552 89.5559 0.588056 89.7834L3.13844 93.4909C3.29494 93.7184 3.60625 93.7759 3.83376 93.6194C4.06127 93.4629 4.11883 93.1516 3.96233 92.9241L1.69532 89.6286L4.99088 87.3616C5.21839 87.2051 5.27595 86.8938 5.11944 86.6662C4.96294 86.4387 4.65163 86.3812 4.42412 86.5377L0.716624 89.0881ZM93.0287 1.16685C99.6775 19.9497 102.999 46.797 91.5677 66.4738C80.1827 86.0707 54.0038 98.7922 1.09091 89.0083L0.909088 89.9917C53.9962 99.8078 80.7339 87.1126 92.4323 66.9762C104.084 46.9197 100.656 19.717 93.9713 0.833154L93.0287 1.16685Z" fill="#C3AC80"/>
</svg>
