<svg width="56" height="56" viewBox="0 0 56 56" fill="none" xmlns="http://www.w3.org/2000/svg">
<circle cx="28" cy="28" r="27.5" stroke="url(#paint0_linear_16_1035)"/>
<path d="M28 30.5C29.3807 30.5 30.5 29.3807 30.5 28C30.5 26.6193 29.3807 25.5 28 25.5C26.6193 25.5 25.5 26.6193 25.5 28C25.5 29.3807 26.6193 30.5 28 30.5Z" stroke="#C3AC80" stroke-miterlimit="10" stroke-linecap="round" stroke-linejoin="round"/>
<path d="M34.5 25.5V30.5" stroke="#C3AC80" stroke-miterlimit="10" stroke-linecap="round" stroke-linejoin="round"/>
<path d="M25 34C25 34.75 24.79 35.46 24.42 36.06C23.73 37.22 22.46 38 21 38C19.54 38 18.27 37.22 17.58 36.06C17.21 35.46 17 34.75 17 34C17 31.79 18.79 30 21 30C23.21 30 25 31.79 25 34Z" stroke="#C3AC80" stroke-miterlimit="10" stroke-linecap="round" stroke-linejoin="round"/>
<path d="M19.4414 33.9995L20.4314 34.9895L22.5614 33.0195" stroke="#C3AC80" stroke-linecap="round" stroke-linejoin="round"/>
<path d="M18 31.3V25C18 21.5 20 20 23 20H33C36 20 38 21.5 38 25V31C38 34.5 36 36 33 36H24.5" stroke="#C3AC80" stroke-miterlimit="10" stroke-linecap="round" stroke-linejoin="round"/>
<defs>
<linearGradient id="paint0_linear_16_1035" x1="48.4016" y1="48.2116" x2="7.61658" y2="8.23449" gradientUnits="userSpaceOnUse">
<stop stop-color="#E1CA6D"/>
<stop offset="0.29214" stop-color="#C3AC80"/>
<stop offset="0.653013" stop-color="#EFE7BA"/>
<stop offset="1" stop-color="#A17C3E"/>
</linearGradient>
</defs>
</svg>
