<svg width="56" height="56" viewBox="0 0 56 56" fill="none" xmlns="http://www.w3.org/2000/svg">
<circle cx="28" cy="28" r="27.5" stroke="url(#paint0_linear_16_996)"/>
<path d="M29.73 19.5101L31.49 23.0301C31.73 23.5201 32.37 23.9901 32.91 24.0801L36.1 24.6101C38.14 24.9501 38.62 26.4301 37.15 27.8901L34.67 30.3701C34.25 30.7901 34.02 31.6001 34.15 32.1801L34.86 35.2501C35.42 37.6801 34.13 38.6201 31.98 37.3501L28.99 35.5801C28.45 35.2601 27.56 35.2601 27.01 35.5801L24.02 37.3501C21.88 38.6201 20.58 37.6701 21.14 35.2501L21.85 32.1801C21.98 31.6001 21.75 30.7901 21.33 30.3701L18.85 27.8901C17.39 26.4301 17.86 24.9501 19.9 24.6101L23.09 24.0801C23.62 23.9901 24.26 23.5201 24.5 23.0301L26.26 19.5101C27.22 17.6001 28.78 17.6001 29.73 19.5101Z" stroke="#C3AC80" stroke-linecap="round" stroke-linejoin="round"/>
<defs>
<linearGradient id="paint0_linear_16_996" x1="48.4016" y1="48.2116" x2="7.61658" y2="8.23449" gradientUnits="userSpaceOnUse">
<stop stop-color="#E1CA6D"/>
<stop offset="0.29214" stop-color="#C3AC80"/>
<stop offset="0.653013" stop-color="#EFE7BA"/>
<stop offset="1" stop-color="#A17C3E"/>
</linearGradient>
</defs>
</svg>
