<svg width="56" height="56" viewBox="0 0 56 56" fill="none" xmlns="http://www.w3.org/2000/svg">
<circle cx="28" cy="28" r="27.5" stroke="url(#paint0_linear_16_975)"/>
<path d="M19.35 18H28.25C28.99 18 29.6 18.61 29.6 19.35V20.83C29.6 21.37 29.26 22.04 28.93 22.38L26.03 24.94C25.63 25.28 25.36 25.95 25.36 26.49V29.39C25.36 29.79 25.09 30.33 24.75 30.54L23.81 31.15C22.93 31.69 21.72 31.08 21.72 30V26.43C21.72 25.96 21.45 25.35 21.18 25.01L18.62 22.31C18.28 21.97 18.01 21.37 18.01 20.96V19.41C18 18.61 18.61 18 19.35 18Z" stroke="#C3AC80" stroke-miterlimit="10" stroke-linecap="round" stroke-linejoin="round"/>
<path d="M18 28.0002V31.0002C18 36.0002 20 38.0002 25 38.0002H31C36 38.0002 38 36.0002 38 31.0002V25.0002C38 21.8802 37.22 19.9202 35.41 18.9002C34.9 18.6102 33.88 18.3902 32.95 18.2402" stroke="#C3AC80" stroke-linecap="round" stroke-linejoin="round"/>
<path d="M29 29H34" stroke="#C3AC80" stroke-linecap="round" stroke-linejoin="round"/>
<path d="M27 33H34" stroke="#C3AC80" stroke-linecap="round" stroke-linejoin="round"/>
<defs>
<linearGradient id="paint0_linear_16_975" x1="48.4016" y1="48.2116" x2="7.61658" y2="8.23449" gradientUnits="userSpaceOnUse">
<stop stop-color="#E1CA6D"/>
<stop offset="0.29214" stop-color="#C3AC80"/>
<stop offset="0.653013" stop-color="#EFE7BA"/>
<stop offset="1" stop-color="#A17C3E"/>
</linearGradient>
</defs>
</svg>
