<svg width="56" height="56" viewBox="0 0 56 56" fill="none" xmlns="http://www.w3.org/2000/svg">
<circle cx="28" cy="28" r="27.5" stroke="url(#paint0_linear_16_1204)"/>
<path d="M28.15 32.5V34.6" stroke="#C3AC80" stroke-linecap="round" stroke-linejoin="round"/>
<path d="M23.15 38H33.15V37C33.15 35.9 32.25 35 31.15 35H25.15C24.05 35 23.15 35.9 23.15 37V38V38Z" stroke="#C3AC80" stroke-miterlimit="10"/>
<path d="M22.15 38H34.15" stroke="#C3AC80" stroke-linecap="round" stroke-linejoin="round"/>
<path d="M28 32C24.13 32 21 28.87 21 25V22C21 19.79 22.79 18 25 18H31C33.21 18 35 19.79 35 22V25C35 28.87 31.87 32 28 32Z" stroke="#C3AC80" stroke-linecap="round" stroke-linejoin="round"/>
<path d="M21.47 27.65C20.72 27.41 20.06 26.97 19.54 26.45C18.64 25.45 18.04 24.25 18.04 22.85C18.04 21.45 19.14 20.35 20.54 20.35H21.19C20.99 20.81 20.89 21.32 20.89 21.85V24.85C20.89 25.85 21.1 26.79 21.47 27.65Z" stroke="#C3AC80" stroke-linecap="round" stroke-linejoin="round"/>
<path d="M34.53 27.65C35.28 27.41 35.94 26.97 36.46 26.45C37.36 25.45 37.96 24.25 37.96 22.85C37.96 21.45 36.86 20.35 35.46 20.35H34.81C35.01 20.81 35.11 21.32 35.11 21.85V24.85C35.11 25.85 34.9 26.79 34.53 27.65Z" stroke="#C3AC80" stroke-linecap="round" stroke-linejoin="round"/>
<defs>
<linearGradient id="paint0_linear_16_1204" x1="48.4016" y1="48.2116" x2="7.61658" y2="8.23449" gradientUnits="userSpaceOnUse">
<stop stop-color="#E1CA6D"/>
<stop offset="0.29214" stop-color="#C3AC80"/>
<stop offset="0.653013" stop-color="#EFE7BA"/>
<stop offset="1" stop-color="#A17C3E"/>
</linearGradient>
</defs>
</svg>
